<svg xmlns="http://www.w3.org/2000/svg" viewBox="0 0 64 64"><defs><linearGradient id="g" x1="10" y1="54" x2="54" y2="10"><stop stop-color="#b8f34a"/><stop offset=".18" stop-color="#ffe53b"/><stop offset=".36" stop-color="#ff8a00"/><stop offset=".54" stop-color="#ff2e93"/><stop offset=".72" stop-color="#9d4dff"/><stop offset=".88" stop-color="#3978ff"/><stop offset="1" stop-color="#21d4c5"/></linearGradient></defs><circle cx="32" cy="32" r="29" fill="#0c0d0f" stroke="url(#g)" stroke-width="2"/><path d="M31 6c8 0 14 3 19 9l4-4v13H41l5-5c-4-5-9-7-15-7zM58 31c0 8-3 14-9 19l4 4H40V41l5 5c5-4 7-9 7-15zM33 58c-8 0-14-3-19-9l-4 4V40h13l-5 5c4 5 9 7 15 7zM6 33c0-8 3-14 9-19l-4-4h13v13l-5-5c-5 4-7 9-7 15z" fill="url(#g)"/><circle cx="32" cy="32" r="10" fill="#14161b"/><path d="m29 25 11 7-11 7z" fill="#fff"/></svg>
