<svg xmlns="http://www.w3.org/2000/svg" viewBox="0 0 64 64"><defs><linearGradient id="g" x1="6" y1="32" x2="58" y2="32"><stop stop-color="#21d4c5"/><stop offset=".2" stop-color="#3978ff"/><stop offset=".4" stop-color="#b537f2"/><stop offset=".6" stop-color="#ff2e93"/><stop offset=".8" stop-color="#ff8a00"/><stop offset="1" stop-color="#ffe53b"/></linearGradient></defs><circle cx="32" cy="32" r="29" fill="#0c0d0f" stroke="url(#g)" stroke-width="3"/><path d="M8 30c1-11 10-20 21-22v8c-7 1-12 6-14 13l5-2-8 11-8-11zM56 34c-1 11-10 20-21 22v-8c7-1 12-6 14-13l-5 2 8-11 8 11z" fill="url(#g)"/><path d="M34 8c11 1 20 10 22 21h-8c-1-7-6-12-13-14l2 5-11-8 11-8zM30 56C19 55 10 46 8 35h8c1 7 6 12 13 14l-2-5 11 8-11 8z" fill="url(#g)" opacity=".8"/><circle cx="32" cy="32" r="10" fill="#14161b"/><path d="m29 25 11 7-11 7z" fill="#fff"/></svg>
